Coordinates
version=1
nRows=29
nColumns=22
inDegrees=yes

Units are S.I. units (second, meters, Newtons, ...)
If the header above contains a line with 'inDegrees', this indicates whether rotational values are in degrees (yes) or radians (no).

endheader
time	pelvis_tilt	pelvis_list	pelvis_rotation	pelvis_tx	pelvis_ty	pelvis_tz	hip_flexion_r	hip_adduction_r	hip_rotation_r	knee_angle_r	ankle_angle_r	subtalar_angle_r	hip_flexion_l	hip_adduction_l	hip_rotation_l	knee_angle_l	ankle_angle_l	subtalar_angle_l	lumbar_extension	lumbar_bending	lumbar_rotation
      2.39000000	     -0.56639630	      7.97199043	    173.98613112	     -0.50701023	      1.00734996	     -0.04966276	     -5.98899452	     11.71511543	     -0.83554933	     -8.61769920	     13.26005432	     -2.21349669	     22.75404308	    -11.08347891	    -18.46558603	    -16.07908200	      8.80866629	      2.42461543	    -17.19920106	      8.76979016	     10.52928599
      2.40000000	     -0.52337145	      8.20203714	    173.96139646	     -0.49960378	      1.00776318	     -0.05019518	     -5.76649663	     12.03979674	     -0.79250676	     -8.15494654	     12.77105684	     -2.38794018	     22.98544890	    -11.71482909	    -19.45305331	    -17.23188667	      8.84185394	      2.32353414	    -17.28722880	      9.03698266	     10.62034034
      2.41000000	     -0.53778882	      8.36713489	    173.98807272	     -0.49236487	      1.00840317	     -0.05059670	     -5.51776488	     12.28904313	     -0.77659659	     -7.83914717	     12.29181299	     -2.46648632	     23.11131418	    -12.22868619	    -20.05908472	    -18.49091541	      8.86644794	      2.19523956	    -17.40140279	      9.22090310	     10.65818272
      2.42000000	     -0.54708276	      8.44365489	    174.05694554	     -0.48526035	      1.00915356	     -0.05082498	     -5.14416972	     12.44085913	     -0.82961321	     -7.72091614	     11.85268275	     -2.57771713	     23.20407815	    -12.59138320	    -20.28282860	    -19.83869180	      8.85919579	      2.01936549	    -17.46332065	      9.31578339	     10.63445058
      2.43000000	     -0.61977737	      8.43794512	    174.18665441	     -0.47827798	      1.01011890	     -0.05086368	     -4.74527321	     12.49666699	     -0.94202642	     -7.74900001	     11.43660722	     -2.64602308	     23.18184698	    -12.78472417	    -20.13164475	    -21.23123519	      8.86238336	      1.84983761	    -17.56379915	      9.32056996	     10.52998051
      2.44000000	     -0.67719199	      8.33396113	    174.36704644	     -0.47142047	      1.01113727	     -0.05075219	     -4.24371121	     12.44901742	     -1.15300561	     -7.91040189	     11.08789808	     -2.75500011	     23.14304213	    -12.80100832	    -19.65461171	    -22.67491079	      8.84606802	      1.62185099	    -17.60013412	      9.22100641	     10.37724256
      2.45000000	     -0.80694156	      8.16461945	    174.60987083	     -0.46468086	      1.01233448	     -0.05047395	     -3.77807208	     12.32353204	     -1.39943543	     -8.13255471	     10.75163102	     -2.83682956	     22.98697090	    -12.66091778	    -18.88769117	    -24.14403653	      8.87408198	      1.46154378	    -17.69109735	      9.05146401	     10.14663068
      2.46000000	     -0.89550897	      7.93269400	    174.86624169	     -0.45800060	      1.01348783	     -0.05011132	     -3.20852270	     12.13166133	     -1.69443679	     -8.45688182	     10.44950641	     -2.98629921	     22.84711424	    -12.40190875	    -17.92914816	    -25.65871764	      8.92299416	      1.24023131	    -17.71304002	      8.81698315	      9.90914054
      2.47000000	     -1.03456035	      7.65820252	    175.15965076	     -0.45139757	      1.01472112	     -0.04962792	     -2.68176501	     11.88437063	     -2.01140341	     -8.79958559	     10.16661992	     -3.12815258	     22.61965962	    -12.03384921	    -16.81836637	    -27.19717130	      9.01212017	      1.09060657	    -17.77906303	      8.53827774	      9.62996558
      2.48000000	     -1.17631937	      7.35495784	    175.45650549	     -0.44485221	      1.01592306	     -0.04907634	     -2.14972280	     11.59865468	     -2.32702883	     -9.16494632	      9.89455630	     -3.29121100	     22.35643629	    -11.59684077	    -15.63649434	    -28.76483064	      9.16114012	      0.96478795	    -17.84014688	      8.23101256	      9.34439044
      2.49000000	     -1.33464987	      7.04291200	    175.74638214	     -0.43836597	      1.01709291	     -0.04847853	     -1.64514965	     11.29406076	     -2.62535948	     -9.52826272	      9.63785116	     -3.45159493	     22.03887885	    -11.12304724	    -14.43344321	    -30.35436069	      9.35328729	      0.87673217	    -17.91831928	      7.91661252	      9.06889226
      2.50000000	     -1.48820659	      6.73965030	    176.01603989	     -0.43195054	      1.01816807	     -0.04787011	     -1.15507540	     10.99178668	     -2.88937226	     -9.87830329	      9.38492064	     -3.62683122	     21.68906974	    -10.64852536	    -13.25967111	    -31.96322116	      9.60049437	      0.80316841	    -17.98596780	      7.61259982	      8.81973821
      2.51000000	     -1.65607961	      6.45286210	    176.26164795	     -0.42563366	      1.01916144	     -0.04725692	     -0.70961290	     10.69877746	     -3.11803721	    -10.20289017	      9.13872228	     -3.78040368	     21.27780933	    -10.19239642	    -12.16181377	    -33.57601656	      9.90915756	      0.75005529	    -18.06379973	      7.32772221	      8.58503168
      2.52000000	     -1.80568739	      6.20279862	    176.47654333	     -0.41938890	      1.02000601	     -0.04664934	     -0.27349924	     10.43979823	     -3.31092168	    -10.49914535	      8.89259429	     -3.96534628	     20.84545644	     -9.78035369	    -11.12411894	    -35.19174715	     10.22228376	      0.69216566	    -18.11595138	      7.08588333	      8.41089162
      2.53000000	     -1.95065483	      5.98686379	    176.65867199	     -0.41324880	      1.02071697	     -0.04607094	      0.13603754	     10.21347923	     -3.46445643	    -10.76642433	      8.64993722	     -4.15437886	     20.36592798	     -9.41981869	    -10.18251291	    -36.78922366	     10.55287213	      0.62959742	    -18.14918377	      6.87769356	      8.28077941
      2.54000000	     -2.07575953	      5.80942296	    176.80186110	     -0.40718995	      1.02127093	     -0.04550622	      0.53821518	     10.02429333	     -3.57856873	    -11.00463536	      8.40723899	     -4.37806890	     19.85549883	     -9.11459374	     -9.32463728	    -38.35910089	     10.85680203	      0.54531469	    -18.14861553	      6.71026067	      8.22156889
      2.55000000	     -2.20715978	      5.67227218	    176.90148259	     -0.40123319	      1.02171434	     -0.04496575	      0.91131709	      9.87143359	     -3.65063001	    -11.22951263	      8.16811236	     -4.53372115	     19.27377423	     -8.87783964	     -8.59084530	    -39.88004165	     11.18758342	      0.46279262	    -18.14292277	      6.58403088	      8.18702546
      2.56000000	     -2.31121455	      5.57952393	    176.96593959	     -0.39534291	      1.02200217	     -0.04441371	      1.29281204	      9.76169398	     -3.70180747	    -11.43259553	      7.92573624	     -4.70443783	     18.66542933	     -8.69972109	     -7.92666450	    -41.34582992	     11.46815486	      0.35528217	    -18.09253921	      6.50858175	      8.21594410
      2.57000000	     -2.38397403	      5.52631115	    176.99337305	     -0.38952424	      1.02213989	     -0.04385073	      1.68959066	      9.68978809	     -3.73310389	    -11.61842244	      7.68281949	     -4.88403077	     18.02962693	     -8.57592078	     -7.33727805	    -42.74036878	     11.71290588	      0.22043222	    -17.99225609	      6.47549450	      8.30705996
      2.58000000	     -2.44966775	      5.51400715	    176.98039532	     -0.38377217	      1.02218013	     -0.04326098	      2.08740053	      9.65290603	     -3.74850667	    -11.80858460	      7.43606466	     -4.98202552	     17.33377047	     -8.51350558	     -6.85173587	    -44.04560584	     11.97143077	      0.12006593	    -17.87455663	      6.49185670	      8.41636743
      2.59000000	     -2.49673902	      5.52099546	    176.93123410	     -0.37808498	      1.02212842	     -0.04263780	      2.49789238	      9.62782037	     -3.78255896	    -11.99667581	      7.19193029	     -5.03459680	     16.58590661	     -8.47652592	     -6.43897536	    -45.23728892	     12.19092976	      0.05138361	    -17.72236904	      6.52576033	      8.59285299
      2.60000000	     -2.49502449	      5.58809475	    176.89121993	     -0.37240793	      1.02191856	     -0.04193541	      2.94737565	      9.66667833	     -3.79499854	    -12.16460606	      6.92779446	     -5.11013522	     15.85580717	     -8.50130495	     -6.03883189	    -46.34737543	     12.38225911	     -0.02989734	    -17.51000688	      6.64679639	      8.70614700
      2.61000000	     -2.49273841	      5.63825228	    176.81084564	     -0.36677957	      1.02168454	     -0.04120851	      3.40467269	      9.67604598	     -3.85133580	    -12.35245242	      6.67781156	     -5.13047081	     15.04445252	     -8.51034231	     -5.72718243	    -47.30284870	     12.53170940	     -0.05168531	    -17.28930758	      6.73992065	      8.87545023
      2.62000000	     -2.43590046	      5.74184635	    176.74623194	     -0.36114067	      1.02130925	     -0.04042184	      3.90812515	      9.74526530	     -3.88212664	    -12.51809214	      6.39917840	     -5.15323086	     14.26032160	     -8.56908033	     -5.40760435	    -48.15591135	     12.65708296	     -0.02147733	    -17.00612246	      6.90787811	      8.97453996
      2.63000000	     -2.37487333	      5.83117972	    176.67248449	     -0.35550468	      1.02091400	     -0.03960456	      4.42449117	      9.79329431	     -3.95128481	    -12.69720201	      6.12007259	     -5.14582200	     13.42074749	     -8.60608657	     -5.13382011	    -48.85258996	     12.73138965	      0.08793050	    -16.71895815	      7.05595229	      9.05408218
      2.64000000	     -2.32035018	      5.90169715	    176.59382139	     -0.34987559	      1.02052680	     -0.03875444	      4.94057539	      9.81604584	     -4.04472250	    -12.88738292	      5.84827726	     -5.12440698	     12.51234189	     -8.61039802	     -4.89481817	    -49.37519039	     12.74279228	      0.20311115	    -16.44074734	      7.17909258	      9.10183481
      2.65000000	     -2.22155182	      5.99230200	    176.57161891	     -0.34417654	      1.02003197	     -0.03780259	      5.50227211	      9.86018275	     -4.14788942	    -13.05800587	      5.55000518	     -5.07610622	     11.65052687	     -8.60939544	     -4.58247037	    -49.78825443	     12.70786099	      0.61009626	    -16.12031841	      7.34210116	      9.02323218
      2.66000000	     -2.13831984	      6.03280618	    176.53786052	     -0.33845169	      1.01956736	     -0.03682188	      6.06977513	      9.84475120	     -4.26419195	    -13.26452355	      5.28363678	     -5.02757679	     10.71519352	     -8.53450528	     -4.29939251	    -50.00720335	     12.60510224	      1.01100070	    -15.82548979	      7.44087796	      8.91149543
      2.67000000	     -2.04353537	      6.07479388	    176.51696805	     -0.33266370	      1.01905600	     -0.03580684	      6.66686731	      9.82875392	     -4.40013738	    -13.49285542	      5.03209191	     -4.97043461	      9.77073799	     -8.44445234	     -4.00375431	    -50.07554655	     12.47779385	      1.55388451	    -15.53259133	      7.53965159	      8.74247984
